# xmcd
#
# Track frame offsets: 
#        150
#        17645
#        48330
#        61318
#        91638
#        105728
#        130728
#        152999
#        168024
#        187506
#        211001
#        236979
#        256532
#        277572
#
# Disc length: 4053 seconds
#
# Revision: 1
# Processed by: cddbd v1.5.2PL0 Copyright (c) Steve Scherf et al.
# Submitted via: ExactAudioCopy v1.0b3
#
DISCID=9d0fd30e
DTITLE=Louis Armstrong - How you has jazz
DYEAR=2007
DGENRE=Jazz
TTITLE0=Ain't misbehavin'
TTITLE1=On the sunny side of the street
TTITLE2=Louis Armstrong - Sy Oliver - Blueberry hill
TTITLE3=New Orleans function
TTITLE4=Louis Armstrong - Sy Oliver - C'est si bon
TTITLE5=Otchi-tchor-ni-ya
TTITLE6=Louis Armstrong - Sy Oliver - Skokiaan I and II
TTITLE7=Mack, the knife
TTITLE8=West end blues
TTITLE9=Royal garden blues
TTITLE10=Muskrat ramble
TTITLE11=Now you has jazz
TTITLE12=They can't take that away
TTITLE13=Louis Armstrong - Ella Fitzgerald - Cheek to cheek
EXTD=
EXTT0=
EXTT1=
EXTT2=
EXTT3=
EXTT4=
EXTT5=
EXTT6=
EXTT7=
EXTT8=
EXTT9=
EXTT10=
EXTT11=
EXTT12=
EXTT13=
PLAYORDER=
